<svg width="16" height="16" fill="none" xmlns="http://www.w3.org/2000/svg"><rect width="16" height="16" rx="4" fill="#EEE"/><path d="M11.8484 8.6002c-.0354-.9457-.1772-1.8914-.1772-2.837 0-.7706.1418-1.5762-.1418-2.3118 0-.07.0355-.175.0355-.2451.0709-.3853-1.1698-.1752-1.347.175-.1064.1052-.1772.2102-.1418.3504 0 .035.0355.07.0355.105-.2482 1.1208-.5672 2.2417-.9217 3.3275-.1418.4203-.319.8406-.4608 1.2609-.2127-.3853-.4253-.7706-.6026-1.1909-.4962-1.2259-.9216-2.4518-1.5242-3.6076.071-.5254-1.1343-.4904-1.3824 0-.2836.5954-.2481 1.1908-.1418 1.8563.1064.7356.1418 1.436.1418 2.1716 0 1.401.1418 2.8021.1418 4.2031-.1418.1401-.1772.3152-.0354.4903l.2126.2102c.319.2452 1.2407.035 1.2407-.4554 0-1.471-.1064-2.907-.1418-4.3781v-.4204c.0354.035.0354.1051.0709.1402.2127.5604.4608 1.1208.7798 1.6462.319.5253.4608 1.0857.638 1.6462-.0709.07-.1063.1751-.0709.2451 0 .0701.0355.1051.1064.1401.2127.2102.6735.1051.8861 0 .1064-.035.2127-.105.2836-.1401.1064-.07.319-.2451.2482-.4203 0-.035-.0355-.07-.0355-.105.1772-.4554.2481-.9107.3545-1.401.1063-.4904.2835-.9808.4608-1.4711.0354.2101.0354.4553.0709.6654.0709.9107 0 1.7863 0 2.697 0 .3152.0354.5604.0709.8756.0354.1051.1417.6305.1063.6655-.2127.2102-.1418.4554.1418.4904.319.07.7444-.035.9925-.2452.4254-.3853.2127-1.0157.1418-1.5061-.2127-.8406-.0355-1.7863-.0355-2.6269Z" fill="#000"/></svg>